<svg width="191" height="66" viewBox="0 0 191 66" fill="none" xmlns="http://www.w3.org/2000/svg">
<path d="M0.973461 12.8389C0.164946 13.9581 0.416826 15.5208 1.53605 16.3293C2.65528 17.1379 4.21802 16.886 5.02654 15.7667L0.973461 12.8389ZM17.9826 39.5643C18.0754 40.9419 19.2674 41.9834 20.645 41.8906C22.0225 41.7978 23.0641 40.6059 22.9713 39.2283L17.9826 39.5643ZM36.9962 45.6047C38.0918 46.4449 39.6611 46.2379 40.5014 45.1423C41.3417 44.0467 41.1347 42.4774 40.0391 41.6372L36.9962 45.6047ZM60.5048 41.2276L58.1456 42.0547C58.5169 43.1138 59.5485 43.7957 60.6683 43.7222C61.7882 43.6488 62.7219 42.8381 62.9518 41.7396L60.5048 41.2276ZM70.7098 14.2668C71.2344 12.9896 70.6243 11.529 69.3471 11.0044C68.0699 10.4798 66.6093 11.0899 66.0847 12.3671L70.7098 14.2668ZM79.3538 13.3169C79.3538 11.9362 78.2346 10.8169 76.8538 10.8169C75.4731 10.8169 74.3538 11.9362 74.3538 13.3169H79.3538ZM74.3538 39.3963C74.3538 40.777 75.4731 41.8963 76.8538 41.8963C78.2346 41.8963 79.3538 40.777 79.3538 39.3963H74.3538ZM84.5017 39.3963C84.5017 40.777 85.621 41.8963 87.0017 41.8963C88.3825 41.8963 89.5017 40.777 89.5017 39.3963H84.5017ZM87.0017 13.3169L89.0499 11.8834C88.4242 10.9894 87.2909 10.6045 86.2502 10.9326C85.2095 11.2606 84.5017 12.2257 84.5017 13.3169H87.0017ZM104.479 38.2865L102.431 39.7201C103.056 40.6141 104.19 40.9989 105.23 40.6709C106.271 40.3429 106.979 39.3777 106.979 38.2865H104.479ZM106.979 13.3169C106.979 11.9362 105.859 10.8169 104.479 10.8169C103.098 10.8169 101.979 11.9362 101.979 13.3169H106.979ZM51.4844 15.4995L53.8436 14.6723L52.9543 12.1356L50.4886 13.2063L51.4844 15.4995ZM5.02654 15.7667C8.20281 11.3698 9.94609 11.3535 10.4721 11.4887C10.8615 11.5888 11.4097 11.9119 12.0744 12.7272C12.7322 13.5341 13.3699 14.6616 13.9637 16.0399C15.1505 18.7948 15.9935 22.1491 16.5422 24.8903C16.8135 26.2456 17.007 27.4203 17.1322 28.2537C17.1948 28.6698 17.2401 28.9996 17.2695 29.2226C17.2842 29.3341 17.2949 29.4188 17.3018 29.4742C17.3052 29.5019 17.3077 29.5223 17.3092 29.535C17.31 29.5413 17.3105 29.5458 17.3108 29.5483C17.311 29.5495 17.311 29.5503 17.3111 29.5505C17.3111 29.5507 17.3111 29.5505 17.3111 29.5506C17.311 29.5503 17.311 29.5498 19.7943 29.261C22.2775 28.9722 22.2774 28.9715 22.2773 28.9707C22.2773 28.9703 22.2772 28.9694 22.2771 28.9685C22.2769 28.9668 22.2766 28.9645 22.2763 28.9618C22.2756 28.9563 22.2748 28.9489 22.2736 28.9395C22.2714 28.9207 22.2682 28.8941 22.2639 28.8601C22.2555 28.7921 22.2432 28.6942 22.2267 28.5691C22.1937 28.3188 22.1441 27.959 22.0767 27.5105C21.942 26.6142 21.7351 25.3583 21.445 23.9089C20.8708 21.0407 19.9465 17.2899 18.5557 14.0616C17.8606 12.4481 17.0068 10.8644 15.9498 9.56789C14.8996 8.27968 13.5097 7.10696 11.7168 6.64613C7.87826 5.65946 4.28058 8.26082 0.973461 12.8389L5.02654 15.7667ZM60.5048 41.2276C62.9518 41.7396 62.9518 41.7397 62.9518 41.7397C62.9518 41.7396 62.9518 41.7395 62.9518 41.7394C62.9519 41.739 62.952 41.7384 62.9522 41.7375C62.9526 41.7357 62.9532 41.7328 62.954 41.7289C62.9557 41.7211 62.9582 41.709 62.9616 41.6928C62.9685 41.6604 62.9788 41.6116 62.9926 41.5469C63.0201 41.4177 63.0613 41.2256 63.1154 40.9767C63.2235 40.4788 63.3831 39.7541 63.5878 38.8519C63.9973 37.0467 64.5866 34.5342 65.3053 31.7074C66.7514 26.0188 68.6894 19.1858 70.7098 14.2668L66.0847 12.3671C63.922 17.6327 61.9137 24.755 60.4594 30.4755C59.7278 33.3534 59.1284 35.909 58.7117 37.7457C58.5033 38.6644 58.3404 39.4041 58.2293 39.9154C58.1738 40.1711 58.1312 40.3697 58.1023 40.5051C58.0879 40.5728 58.0769 40.6247 58.0695 40.66C58.0657 40.6777 58.0629 40.6912 58.0609 40.7005C58.06 40.7052 58.0592 40.7087 58.0587 40.7112C58.0584 40.7125 58.0582 40.7135 58.0581 40.7142C58.058 40.7146 58.0579 40.7149 58.0579 40.7151C58.0578 40.7153 58.0578 40.7155 60.5048 41.2276ZM74.3538 13.3169V39.3963H79.3538V13.3169H74.3538ZM89.5017 39.3963C89.5017 39.3764 89.5017 39.3565 89.5017 39.3365C89.5017 39.3166 89.5017 39.2966 89.5017 39.2767C89.5017 39.2567 89.5017 39.2367 89.5017 39.2167C89.5017 39.1967 89.5017 39.1766 89.5017 39.1565C89.5017 39.1365 89.5017 39.1164 89.5017 39.0963C89.5017 39.0762 89.5017 39.0561 89.5017 39.0359C89.5017 39.0158 89.5017 38.9956 89.5017 38.9754C89.5017 38.9552 89.5017 38.935 89.5017 38.9148C89.5017 38.8945 89.5017 38.8743 89.5017 38.854C89.5017 38.8338 89.5017 38.8135 89.5017 38.7932C89.5017 38.7728 89.5017 38.7525 89.5017 38.7322C89.5017 38.7118 89.5017 38.6914 89.5017 38.671C89.5017 38.6507 89.5017 38.6302 89.5017 38.6098C89.5017 38.5894 89.5017 38.5689 89.5017 38.5485C89.5017 38.528 89.5017 38.5075 89.5017 38.487C89.5017 38.4665 89.5017 38.446 89.5017 38.4254C89.5017 38.4049 89.5017 38.3843 89.5017 38.3637C89.5017 38.3431 89.5017 38.3225 89.5017 38.3019C89.5017 38.2813 89.5017 38.2606 89.5017 38.24C89.5017 38.2193 89.5017 38.1986 89.5017 38.1779C89.5017 38.1572 89.5017 38.1365 89.5017 38.1158C89.5017 38.095 89.5017 38.0743 89.5017 38.0535C89.5017 38.0327 89.5017 38.0119 89.5017 37.9911C89.5017 37.9703 89.5017 37.9495 89.5017 37.9287C89.5017 37.9078 89.5017 37.8869 89.5017 37.8661C89.5017 37.8452 89.5017 37.8243 89.5017 37.8034C89.5017 37.7825 89.5017 37.7615 89.5017 37.7406C89.5017 37.7196 89.5017 37.6987 89.5017 37.6777C89.5017 37.6567 89.5017 37.6357 89.5017 37.6147C89.5017 37.5936 89.5017 37.5726 89.5017 37.5516C89.5017 37.5305 89.5017 37.5094 89.5017 37.4883C89.5017 37.4673 89.5017 37.4461 89.5017 37.425C89.5017 37.4039 89.5017 37.3828 89.5017 37.3616C89.5017 37.3405 89.5017 37.3193 89.5017 37.2981C89.5017 37.2769 89.5017 37.2557 89.5017 37.2345C89.5017 37.2133 89.5017 37.192 89.5017 37.1708C89.5017 37.1495 89.5017 37.1283 89.5017 37.107C89.5017 37.0857 89.5017 37.0644 89.5017 37.0431C89.5017 37.0218 89.5017 37.0004 89.5017 36.9791C89.5017 36.9577 89.5017 36.9364 89.5017 36.915C89.5017 36.8936 89.5017 36.8722 89.5017 36.8508C89.5017 36.8294 89.5017 36.808 89.5017 36.7866C89.5017 36.7651 89.5017 36.7437 89.5017 36.7222C89.5017 36.7007 89.5017 36.6793 89.5017 36.6578C89.5017 36.6363 89.5017 36.6148 89.5017 36.5932C89.5017 36.5717 89.5017 36.5502 89.5017 36.5286C89.5017 36.507 89.5017 36.4855 89.5017 36.4639C89.5017 36.4423 89.5017 36.4207 89.5017 36.3991C89.5017 36.3775 89.5017 36.3559 89.5017 36.3342C89.5017 36.3126 89.5017 36.2909 89.5017 36.2693C89.5017 36.2476 89.5017 36.2259 89.5017 36.2042C89.5017 36.1825 89.5017 36.1608 89.5017 36.1391C89.5017 36.1174 89.5017 36.0956 89.5017 36.0739C89.5017 36.0521 89.5017 36.0304 89.5017 36.0086C89.5017 35.9868 89.5017 35.965 89.5017 35.9432C89.5017 35.9214 89.5017 35.8996 89.5017 35.8778C89.5017 35.856 89.5017 35.8341 89.5017 35.8123C89.5017 35.7904 89.5017 35.7686 89.5017 35.7467C89.5017 35.7248 89.5017 35.7029 89.5017 35.681C89.5017 35.6591 89.5017 35.6372 89.5017 35.6153C89.5017 35.5933 89.5017 35.5714 89.5017 35.5495C89.5017 35.5275 89.5017 35.5055 89.5017 35.4836C89.5017 35.4616 89.5017 35.4396 89.5017 35.4176C89.5017 35.3956 89.5017 35.3736 89.5017 35.3516C89.5017 35.3296 89.5017 35.3075 89.5017 35.2855C89.5017 35.2634 89.5017 35.2414 89.5017 35.2193C89.5017 35.1973 89.5017 35.1752 89.5017 35.1531C89.5017 35.131 89.5017 35.1089 89.5017 35.0868C89.5017 35.0647 89.5017 35.0426 89.5017 35.0204C89.5017 34.9983 89.5017 34.9762 89.5017 34.954C89.5017 34.9319 89.5017 34.9097 89.5017 34.8875C89.5017 34.8653 89.5017 34.8432 89.5017 34.821C89.5017 34.7988 89.5017 34.7766 89.5017 34.7544C89.5017 34.7321 89.5017 34.7099 89.5017 34.6877C89.5017 34.6654 89.5017 34.6432 89.5017 34.621C89.5017 34.5987 89.5017 34.5764 89.5017 34.5542C89.5017 34.5319 89.5017 34.5096 89.5017 34.4873C89.5017 34.465 89.5017 34.4427 89.5017 34.4204C89.5017 34.3981 89.5017 34.3758 89.5017 34.3535C89.5017 34.3311 89.5017 34.3088 89.5017 34.2864C89.5017 34.2641 89.5017 34.2417 89.5017 34.2194C89.5017 34.197 89.5017 34.1746 89.5017 34.1523C89.5017 34.1299 89.5017 34.1075 89.5017 34.0851C89.5017 34.0627 89.5017 34.0403 89.5017 34.0179C89.5017 33.9954 89.5017 33.973 89.5017 33.9506C89.5017 33.9282 89.5017 33.9057 89.5017 33.8833C89.5017 33.8608 89.5017 33.8384 89.5017 33.8159C89.5017 33.7934 89.5017 33.771 89.5017 33.7485C89.5017 33.726 89.5017 33.7035 89.5017 33.681C89.5017 33.6585 89.5017 33.636 89.5017 33.6135C89.5017 33.591 89.5017 33.5685 89.5017 33.546C89.5017 33.5235 89.5017 33.5009 89.5017 33.4784C89.5017 33.4558 89.5017 33.4333 89.5017 33.4107C89.5017 33.3882 89.5017 33.3656 89.5017 33.3431C89.5017 33.3205 89.5017 33.2979 89.5017 33.2754C89.5017 33.2528 89.5017 33.2302 89.5017 33.2076C89.5017 33.185 89.5017 33.1624 89.5017 33.1398C89.5017 33.1172 89.5017 33.0946 89.5017 33.072C89.5017 33.0494 89.5017 33.0268 89.5017 33.0041C89.5017 32.9815 89.5017 32.9589 89.5017 32.9362C89.5017 32.9136 89.5017 32.8909 89.5017 32.8683C89.5017 32.8456 89.5017 32.823 89.5017 32.8003C89.5017 32.7777 89.5017 32.755 89.5017 32.7323C89.5017 32.7097 89.5017 32.687 89.5017 32.6643C89.5017 32.6416 89.5017 32.6189 89.5017 32.5962C89.5017 32.5736 89.5017 32.5509 89.5017 32.5282C89.5017 32.5055 89.5017 32.4827 89.5017 32.46C89.5017 32.4373 89.5017 32.4146 89.5017 32.3919C89.5017 32.3692 89.5017 32.3465 89.5017 32.3237C89.5017 32.301 89.5017 32.2783 89.5017 32.2555C89.5017 32.2328 89.5017 32.2101 89.5017 32.1873C89.5017 32.1646 89.5017 32.1418 89.5017 32.1191C89.5017 32.0963 89.5017 32.0736 89.5017 32.0508C89.5017 32.028 89.5017 32.0053 89.5017 31.9825C89.5017 31.9597 89.5017 31.937 89.5017 31.9142C89.5017 31.8914 89.5017 31.8686 89.5017 31.8459C89.5017 31.8231 89.5017 31.8003 89.5017 31.7775C89.5017 31.7547 89.5017 31.7319 89.5017 31.7092C89.5017 31.6864 89.5017 31.6636 89.5017 31.6408C89.5017 31.618 89.5017 31.5952 89.5017 31.5724C89.5017 31.5496 89.5017 31.5268 89.5017 31.504C89.5017 31.4812 89.5017 31.4584 89.5017 31.4355C89.5017 31.4127 89.5017 31.3899 89.5017 31.3671C89.5017 31.3443 89.5017 31.3215 89.5017 31.2987C89.5017 31.2758 89.5017 31.253 89.5017 31.2302C89.5017 31.2074 89.5017 31.1845 89.5017 31.1617C89.5017 31.1389 89.5017 31.1161 89.5017 31.0932C89.5017 31.0704 89.5017 31.0476 89.5017 31.0247C89.5017 31.0019 89.5017 30.9791 89.5017 30.9563C89.5017 30.9334 89.5017 30.9106 89.5017 30.8877C89.5017 30.8649 89.5017 30.8421 89.5017 30.8192C89.5017 30.7964 89.5017 30.7736 89.5017 30.7507C89.5017 30.7279 89.5017 30.7051 89.5017 30.6822C89.5017 30.6594 89.5017 30.6365 89.5017 30.6137C89.5017 30.5909 89.5017 30.568 89.5017 30.5452C89.5017 30.5223 89.5017 30.4995 89.5017 30.4767C89.5017 30.4538 89.5017 30.431 89.5017 30.4081C89.5017 30.3853 89.5017 30.3625 89.5017 30.3396C89.5017 30.3168 89.5017 30.294 89.5017 30.2711C89.5017 30.2483 89.5017 30.2254 89.5017 30.2026C89.5017 30.1798 89.5017 30.1569 89.5017 30.1341C89.5017 30.1113 89.5017 30.0884 89.5017 30.0656C89.5017 30.0428 89.5017 30.0199 89.5017 29.9971C89.5017 29.9743 89.5017 29.9515 89.5017 29.9286C89.5017 29.9058 89.5017 29.883 89.5017 29.8601C89.5017 29.8373 89.5017 29.8145 89.5017 29.7917C89.5017 29.7689 89.5017 29.746 89.5017 29.7232C89.5017 29.7004 89.5017 29.6776 89.5017 29.6548C89.5017 29.632 89.5017 29.6091 89.5017 29.5863C89.5017 29.5635 89.5017 29.5407 89.5017 29.5179C89.5017 29.4951 89.5017 29.4723 89.5017 29.4495C89.5017 29.4267 89.5017 29.4039 89.5017 29.3811C89.5017 29.3583 89.5017 29.3355 89.5017 29.3127C89.5017 29.29 89.5017 29.2672 89.5017 29.2444C89.5017 29.2216 89.5017 29.1988 89.5017 29.176C89.5017 29.1533 89.5017 29.1305 89.5017 29.1077C89.5017 29.085 89.5017 29.0622 89.5017 29.0394C89.5017 29.0167 89.5017 28.9939 89.5017 28.9711C89.5017 28.9484 89.5017 28.9256 89.5017 28.9029C89.5017 28.8801 89.5017 28.8574 89.5017 28.8346C89.5017 28.8119 89.5017 28.7892 89.5017 28.7664C89.5017 28.7437 89.5017 28.721 89.5017 28.6982C89.5017 28.6755 89.5017 28.6528 89.5017 28.6301C89.5017 28.6074 89.5017 28.5847 89.5017 28.5619C89.5017 28.5392 89.5017 28.5165 89.5017 28.4938C89.5017 28.4711 89.5017 28.4485 89.5017 28.4258C89.5017 28.4031 89.5017 28.3804 89.5017 28.3577C89.5017 28.335 89.5017 28.3124 89.5017 28.2897C89.5017 28.267 89.5017 28.2444 89.5017 28.2217C89.5017 28.1991 89.5017 28.1764 89.5017 28.1538C89.5017 28.1311 89.5017 28.1085 89.5017 28.0858C89.5017 28.0632 89.5017 28.0406 89.5017 28.0179C89.5017 27.9953 89.5017 27.9727 89.5017 27.9501C89.5017 27.9275 89.5017 27.9049 89.5017 27.8823C89.5017 27.8597 89.5017 27.8371 89.5017 27.8145C89.5017 27.7919 89.5017 27.7693 89.5017 27.7468C89.5017 27.7242 89.5017 27.7016 89.5017 27.6791C89.5017 27.6565 89.5017 27.634 89.5017 27.6114C89.5017 27.5889 89.5017 27.5663 89.5017 27.5438C89.5017 27.5213 89.5017 27.4987 89.5017 27.4762C89.5017 27.4537 89.5017 27.4312 89.5017 27.4087C89.5017 27.3862 89.5017 27.3637 89.5017 27.3412C89.5017 27.3187 89.5017 27.2962 89.5017 27.2738C89.5017 27.2513 89.5017 27.2288 89.5017 27.2064C89.5017 27.1839 89.5017 27.1614 89.5017 27.139C89.5017 27.1166 89.5017 27.0941 89.5017 27.0717C89.5017 27.0493 89.5017 27.0269 89.5017 27.0044C89.5017 26.982 89.5017 26.9596 89.5017 26.9372C89.5017 26.9149 89.5017 26.8925 89.5017 26.8701C89.5017 26.8477 89.5017 26.8253 89.5017 26.803C89.5017 26.7806 89.5017 26.7583 89.5017 26.7359C89.5017 26.7136 89.5017 26.6913 89.5017 26.6689C89.5017 26.6466 89.5017 26.6243 89.5017 26.602C89.5017 26.5797 89.5017 26.5574 89.5017 26.5351C89.5017 26.5128 89.5017 26.4906 89.5017 26.4683C89.5017 26.446 89.5017 26.4238 89.5017 26.4015C89.5017 26.3793 89.5017 26.357 89.5017 26.3348C89.5017 26.3126 89.5017 26.2904 89.5017 26.2682C89.5017 26.246 89.5017 26.2238 89.5017 26.2016C89.5017 26.1794 89.5017 26.1572 89.5017 26.135C89.5017 26.1129 89.5017 26.0907 89.5017 26.0686C89.5017 26.0464 89.5017 26.0243 89.5017 26.0022C89.5017 25.9801 89.5017 25.9579 89.5017 25.9358C89.5017 25.9137 89.5017 25.8916 89.5017 25.8696C89.5017 25.8475 89.5017 25.8254 89.5017 25.8034C89.5017 25.7813 89.5017 25.7593 89.5017 25.7372C89.5017 25.7152 89.5017 25.6932 89.5017 25.6711C89.5017 25.6491 89.5017 25.6271 89.5017 25.6051C89.5017 25.5832 89.5017 25.5612 89.5017 25.5392C89.5017 25.5172 89.5017 25.4953 89.5017 25.4734C89.5017 25.4514 89.5017 25.4295 89.5017 25.4076C89.5017 25.3856 89.5017 25.3637 89.5017 25.3418C89.5017 25.32 89.5017 25.2981 89.5017 25.2762C89.5017 25.2543 89.5017 25.2325 89.5017 25.2106C89.5017 25.1888 89.5017 25.167 89.5017 25.1451C89.5017 25.1233 89.5017 25.1015 89.5017 25.0797C89.5017 25.0579 89.5017 25.0362 89.5017 25.0144C89.5017 24.9926 89.5017 24.9709 89.5017 24.9491C89.5017 24.9274 89.5017 24.9057 89.5017 24.884C89.5017 24.8623 89.5017 24.8406 89.5017 24.8189C89.5017 24.7972 89.5017 24.7755 89.5017 24.7539C89.5017 24.7322 89.5017 24.7106 89.5017 24.6889C89.5017 24.6673 89.5017 24.6457 89.5017 24.6241C89.5017 24.6025 89.5017 24.5809 89.5017 24.5593C89.5017 24.5377 89.5017 24.5162 89.5017 24.4946C89.5017 24.4731 89.5017 24.4516 89.5017 24.43C89.5017 24.4085 89.5017 24.387 89.5017 24.3655C89.5017 24.3441 89.5017 24.3226 89.5017 24.3011C89.5017 24.2797 89.5017 24.2582 89.5017 24.2368C89.5017 24.2154 89.5017 24.194 89.5017 24.1726C89.5017 24.1512 89.5017 24.1298 89.5017 24.1084C89.5017 24.0871 89.5017 24.0657 89.5017 24.0444C89.5017 24.023 89.5017 24.0017 89.5017 23.9804C89.5017 23.9591 89.5017 23.9378 89.5017 23.9165C89.5017 23.8953 89.5017 23.874 89.5017 23.8528C89.5017 23.8315 89.5017 23.8103 89.5017 23.7891C89.5017 23.7679 89.5017 23.7467 89.5017 23.7255C89.5017 23.7044 89.5017 23.6832 89.5017 23.6621C89.5017 23.6409 89.5017 23.6198 89.5017 23.5987C89.5017 23.5776 89.5017 23.5565 89.5017 23.5354C89.5017 23.5143 89.5017 23.4933 89.5017 23.4722C89.5017 23.4512 89.5017 23.4302 89.5017 23.4092C89.5017 23.3881 89.5017 23.3672 89.5017 23.3462C89.5017 23.3252 89.5017 23.3043 89.5017 23.2833C89.5017 23.2624 89.5017 23.2415 89.5017 23.2206C89.5017 23.1996 89.5017 23.1788 89.5017 23.1579C89.5017 23.137 89.5017 23.1162 89.5017 23.0953C89.5017 23.0745 89.5017 23.0537 89.5017 23.0329C89.5017 23.0121 89.5017 22.9913 89.5017 22.9706C89.5017 22.9498 89.5017 22.9291 89.5017 22.9083C89.5017 22.8876 89.5017 22.8669 89.5017 22.8462C89.5017 22.8256 89.5017 22.8049 89.5017 22.7842C89.5017 22.7636 89.5017 22.743 89.5017 22.7223C89.5017 22.7017 89.5017 22.6811 89.5017 22.6606C89.5017 22.64 89.5017 22.6195 89.5017 22.5989C89.5017 22.5784 89.5017 22.5579 89.5017 22.5374C89.5017 22.5169 89.5017 22.4964 89.5017 22.4759C89.5017 22.4555 89.5017 22.4351 89.5017 22.4146C89.5017 22.3942 89.5017 22.3738 89.5017 22.3534C89.5017 22.3331 89.5017 22.3127 89.5017 22.2924C89.5017 22.272 89.5017 22.2517 89.5017 22.2314C89.5017 22.2111 89.5017 22.1908 89.5017 22.1706C89.5017 22.1503 89.5017 22.1301 89.5017 22.1099C89.5017 22.0897 89.5017 22.0695 89.5017 22.0493C89.5017 22.0291 89.5017 22.009 89.5017 21.9888C89.5017 21.9687 89.5017 21.9486 89.5017 21.9285C89.5017 21.9084 89.5017 21.8883 89.5017 21.8683C89.5017 21.8482 89.5017 21.8282 89.5017 21.8082C89.5017 21.7882 89.5017 21.7682 89.5017 21.7483C89.5017 21.7283 89.5017 21.7084 89.5017 21.6884C89.5017 21.6685 89.5017 21.6486 89.5017 21.6287C89.5017 21.6089 89.5017 21.589 89.5017 21.5692C89.5017 21.5494 89.5017 21.5295 89.5017 21.5098C89.5017 21.49 89.5017 21.4702 89.5017 21.4505C89.5017 21.4307 89.5017 21.411 89.5017 21.3913C89.5017 21.3716 89.5017 21.3519 89.5017 21.3323C89.5017 21.3126 89.5017 21.293 89.5017 21.2734C89.5017 21.2538 89.5017 21.2342 89.5017 21.2146C89.5017 21.195 89.5017 21.1755 89.5017 21.156C89.5017 21.1365 89.5017 21.117 89.5017 21.0975C89.5017 21.078 89.5017 21.0586 89.5017 21.0392C89.5017 21.0198 89.5017 21.0004 89.5017 20.981C89.5017 20.9616 89.5017 20.9422 89.5017 20.9229C89.5017 20.9036 89.5017 20.8843 89.5017 20.865C89.5017 20.8457 89.5017 20.8265 89.5017 20.8072C89.5017 20.788 89.5017 20.7688 89.5017 20.7496C89.5017 20.7304 89.5017 20.7113 89.5017 20.6921C89.5017 20.673 89.5017 20.6539 89.5017 20.6348C89.5017 20.6157 89.5017 20.5966 89.5017 20.5776C89.5017 20.5586 89.5017 20.5395 89.5017 20.5206C89.5017 20.5016 89.5017 20.4826 89.5017 20.4637C89.5017 20.4447 89.5017 20.4258 89.5017 20.4069C89.5017 20.388 89.5017 20.3692 89.5017 20.3503C89.5017 20.3315 89.5017 20.3127 89.5017 20.2939C89.5017 20.2751 89.5017 20.2564 89.5017 20.2376C89.5017 20.2189 89.5017 20.2002 89.5017 20.1815C89.5017 20.1628 89.5017 20.1442 89.5017 20.1255C89.5017 20.1069 89.5017 20.0883 89.5017 20.0697C89.5017 20.0511 89.5017 20.0326 89.5017 20.014C89.5017 19.9955 89.5017 19.977 89.5017 19.9585C89.5017 19.9401 89.5017 19.9216 89.5017 19.9032C89.5017 19.8848 89.5017 19.8664 89.5017 19.848C89.5017 19.8297 89.5017 19.8113 89.5017 19.793C89.5017 19.7747 89.5017 19.7564 89.5017 19.7381C89.5017 19.7199 89.5017 19.7016 89.5017 19.6834C89.5017 19.6652 89.5017 19.6471 89.5017 19.6289C89.5017 19.6108 89.5017 19.5926 89.5017 19.5745C89.5017 19.5564 89.5017 19.5384 89.5017 19.5203C89.5017 19.5023 89.5017 19.4843 89.5017 19.4663C89.5017 19.4483 89.5017 19.4304 89.5017 19.4124C89.5017 19.3945 89.5017 19.3766 89.5017 19.3587C89.5017 19.3409 89.5017 19.323 89.5017 19.3052C89.5017 19.2874 89.5017 19.2696 89.5017 19.2519C89.5017 19.2341 89.5017 19.2164 89.5017 19.1987C89.5017 19.181 89.5017 19.1633 89.5017 19.1457C89.5017 19.128 89.5017 19.1104 89.5017 19.0928C89.5017 19.0752 89.5017 19.0577 89.5017 19.0401C89.5017 19.0226 89.5017 19.0051 89.5017 18.9877C89.5017 18.9702 89.5017 18.9527 89.5017 18.9353C89.5017 18.9179 89.5017 18.9005 89.5017 18.8832C89.5017 18.8659 89.5017 18.8485 89.5017 18.8312C89.5017 18.814 89.5017 18.7967 89.5017 18.7795C89.5017 18.7622 89.5017 18.745 89.5017 18.7279C89.5017 18.7107 89.5017 18.6936 89.5017 18.6764C89.5017 18.6593 89.5017 18.6423 89.5017 18.6252C89.5017 18.6082 89.5017 18.5911 89.5017 18.5742C89.5017 18.5572 89.5017 18.5402 89.5017 18.5233C89.5017 18.5064 89.5017 18.4895 89.5017 18.4726C89.5017 18.4557 89.5017 18.4389 89.5017 18.4221C89.5017 18.4053 89.5017 18.3885 89.5017 18.3718C89.5017 18.3551 89.5017 18.3384 89.5017 18.3217C89.5017 18.305 89.5017 18.2884 89.5017 18.2717C89.5017 18.2551 89.5017 18.2386 89.5017 18.222C89.5017 18.2055 89.5017 18.1889 89.5017 18.1724C89.5017 18.156 89.5017 18.1395 89.5017 18.1231C89.5017 18.1067 89.5017 18.0903 89.5017 18.0739C89.5017 18.0576 89.5017 18.0412 89.5017 18.0249C89.5017 18.0087 89.5017 17.9924 89.5017 17.9762C89.5017 17.9599 89.5017 17.9437 89.5017 17.9276C89.5017 17.9114 89.5017 17.8953 89.5017 17.8792C89.5017 17.8631 89.5017 17.847 89.5017 17.831C89.5017 17.815 89.5017 17.799 89.5017 17.783C89.5017 17.7671 89.5017 17.7511 89.5017 17.7352C89.5017 17.7193 89.5017 17.7035 89.5017 17.6876C89.5017 17.6718 89.5017 17.656 89.5017 17.6403C89.5017 17.6245 89.5017 17.6088 89.5017 17.5931C89.5017 17.5774 89.5017 17.5617 89.5017 17.5461C89.5017 17.5305 89.5017 17.5149 89.5017 17.4993C89.5017 17.4837 89.5017 17.4682 89.5017 17.4527C89.5017 17.4372 89.5017 17.4218 89.5017 17.4064C89.5017 17.3909 89.5017 17.3756 89.5017 17.3602C89.5017 17.3449 89.5017 17.3295 89.5017 17.3143C89.5017 17.299 89.5017 17.2837 89.5017 17.2685C89.5017 17.2533 89.5017 17.2381 89.5017 17.223C89.5017 17.2078 89.5017 17.1927 89.5017 17.1777C89.5017 17.1626 89.5017 17.1476 89.5017 17.1326C89.5017 17.1176 89.5017 17.1026 89.5017 17.0877C89.5017 17.0727 89.5017 17.0578 89.5017 17.043C89.5017 17.0281 89.5017 17.0133 89.5017 16.9985C89.5017 16.9837 89.5017 16.969 89.5017 16.9543C89.5017 16.9396 89.5017 16.9249 89.5017 16.9102C89.5017 16.8956 89.5017 16.881 89.5017 16.8664C89.5017 16.8519 89.5017 16.8373 89.5017 16.8228C89.5017 16.8083 89.5017 16.7939 89.5017 16.7795C89.5017 16.765 89.5017 16.7506 89.5017 16.7363C89.5017 16.722 89.5017 16.7076 89.5017 16.6934C89.5017 16.6791 89.5017 16.6649 89.5017 16.6507C89.5017 16.6365 89.5017 16.6223 89.5017 16.6082C89.5017 16.594 89.5017 16.58 89.5017 16.5659C89.5017 16.5519 89.5017 16.5378 89.5017 16.5239C89.5017 16.5099 89.5017 16.496 89.5017 16.4821C89.5017 16.4682 89.5017 16.4543 89.5017 16.4405C89.5017 16.4267 89.5017 16.4129 89.5017 16.3991C89.5017 16.3854 89.5017 16.3717 89.5017 16.358C89.5017 16.3443 89.5017 16.3307 89.5017 16.3171C89.5017 16.3035 89.5017 16.29 89.5017 16.2765C89.5017 16.2629 89.5017 16.2495 89.5017 16.236C89.5017 16.2226 89.5017 16.2092 89.5017 16.1958C89.5017 16.1825 89.5017 16.1692 89.5017 16.1559C89.5017 16.1426 89.5017 16.1293 89.5017 16.1161C89.5017 16.1029 89.5017 16.0898 89.5017 16.0767C89.5017 16.0635 89.5017 16.0504 89.5017 16.0374C89.5017 16.0244 89.5017 16.0114 89.5017 15.9984C89.5017 15.9854 89.5017 15.9725 89.5017 15.9596C89.5017 15.9467 89.5017 15.9339 89.5017 15.9211C89.5017 15.9083 89.5017 15.8955 89.5017 15.8828C89.5017 15.8701 89.5017 15.8574 89.5017 15.8447C89.5017 15.8321 89.5017 15.8195 89.5017 15.8069C89.5017 15.7944 89.5017 15.7818 89.5017 15.7694C89.5017 15.7569 89.5017 15.7444 89.5017 15.732C89.5017 15.7196 89.5017 15.7073 89.5017 15.695C89.5017 15.6827 89.5017 15.6704 89.5017 15.6581C89.5017 15.6459 89.5017 15.6337 89.5017 15.6216C89.5017 15.6094 89.5017 15.5973 89.5017 15.5852C89.5017 15.5732 89.5017 15.5611 89.5017 15.5492C89.5017 15.5372 89.5017 15.5252 89.5017 15.5133C89.5017 15.5014 89.5017 15.4896 89.5017 15.4778C89.5017 15.4659 89.5017 15.4542 89.5017 15.4424C89.5017 15.4307 89.5017 15.419 89.5017 15.4074C89.5017 15.3957 89.5017 15.3841 89.5017 15.3725C89.5017 15.361 89.5017 15.3495 89.5017 15.338C89.5017 15.3265 89.5017 15.3151 89.5017 15.3037C89.5017 15.2923 89.5017 15.2809 89.5017 15.2696C89.5017 15.2583 89.5017 15.2471 89.5017 15.2358C89.5017 15.2246 89.5017 15.2134 89.5017 15.2023C89.5017 15.1912 89.5017 15.1801 89.5017 15.169C89.5017 15.158 89.5017 15.147 89.5017 15.136C89.5017 15.1251 89.5017 15.1142 89.5017 15.1033C89.5017 15.0924 89.5017 15.0816 89.5017 15.0708C89.5017 15.06 89.5017 15.0493 89.5017 15.0386C89.5017 15.0279 89.5017 15.0173 89.5017 15.0067C89.5017 14.996 89.5017 14.9855 89.5017 14.975C89.5017 14.9644 89.5017 14.954 89.5017 14.9435C89.5017 14.9331 89.5017 14.9227 89.5017 14.9124C89.5017 14.9021 89.5017 14.8918 89.5017 14.8815C89.5017 14.8713 89.5017 14.8611 89.5017 14.8509C89.5017 14.8408 89.5017 14.8306 89.5017 14.8206C89.5017 14.8105 89.5017 14.8005 89.5017 14.7905C89.5017 14.7805 89.5017 14.7706 89.5017 14.7607C89.5017 14.7508 89.5017 14.741 89.5017 14.7312C89.5017 14.7214 89.5017 14.7116 89.5017 14.7019C89.5017 14.6922 89.5017 14.6826 89.5017 14.673C89.5017 14.6634 89.5017 14.6538 89.5017 14.6443C89.5017 14.6348 89.5017 14.6253 89.5017 14.6159C89.5017 14.6064 89.5017 14.5971 89.5017 14.5877C89.5017 14.5784 89.5017 14.5691 89.5017 14.5599C89.5017 14.5506 89.5017 14.5415 89.5017 14.5323C89.5017 14.5232 89.5017 14.5141 89.5017 14.505C89.5017 14.496 89.5017 14.487 89.5017 14.478C89.5017 14.469 89.5017 14.4601 89.5017 14.4513C89.5017 14.4424 89.5017 14.4336 89.5017 14.4248C89.5017 14.4161 89.5017 14.4073 89.5017 14.3987C89.5017 14.39 89.5017 14.3814 89.5017 14.3728C89.5017 14.3642 89.5017 14.3557 89.5017 14.3472C89.5017 14.3387 89.5017 14.3303 89.5017 14.3219C89.5017 14.3135 89.5017 14.3052 89.5017 14.2969C89.5017 14.2886 89.5017 14.2804 89.5017 14.2722C89.5017 14.264 89.5017 14.2559 89.5017 14.2478C89.5017 14.2397 89.5017 14.2317 89.5017 14.2237C89.5017 14.2157 89.5017 14.2077 89.5017 14.1998C89.5017 14.1919 89.5017 14.1841 89.5017 14.1763C89.5017 14.1685 89.5017 14.1607 89.5017 14.153C89.5017 14.1453 89.5017 14.1377 89.5017 14.1301C89.5017 14.1225 89.5017 14.1149 89.5017 14.1074C89.5017 14.0999 89.5017 14.0925 89.5017 14.0851C89.5017 14.0777 89.5017 14.0703 89.5017 14.063C89.5017 14.0557 89.5017 14.0485 89.5017 14.0413C89.5017 14.0341 89.5017 14.0269 89.5017 14.0198C89.5017 14.0127 89.5017 14.0056 89.5017 13.9986C89.5017 13.9916 89.5017 13.9847 89.5017 13.9778C89.5017 13.9709 89.5017 13.964 89.5017 13.9572C89.5017 13.9504 89.5017 13.9437 89.5017 13.937C89.5017 13.9303 89.5017 13.9237 89.5017 13.9171C89.5017 13.9105 89.5017 13.9039 89.5017 13.8974C89.5017 13.8909 89.5017 13.8845 89.5017 13.8781C89.5017 13.8717 89.5017 13.8654 89.5017 13.8591C89.5017 13.8528 89.5017 13.8466 89.5017 13.8404C89.5017 13.8342 89.5017 13.8281 89.5017 13.822C89.5017 13.8159 89.5017 13.8099 89.5017 13.8039C89.5017 13.7979 89.5017 13.792 89.5017 13.7862C89.5017 13.7803 89.5017 13.7745 89.5017 13.7687C89.5017 13.7629 89.5017 13.7572 89.5017 13.7516C89.5017 13.7459 89.5017 13.7403 89.5017 13.7347C89.5017 13.7292 89.5017 13.7237 89.5017 13.7182C89.5017 13.7128 89.5017 13.7074 89.5017 13.702C89.5017 13.6967 89.5017 13.6914 89.5017 13.6862C89.5017 13.6809 89.5017 13.6757 89.5017 13.6706C89.5017 13.6655 89.5017 13.6604 89.5017 13.6554C89.5017 13.6504 89.5017 13.6454 89.5017 13.6405C89.5017 13.6355 89.5017 13.6307 89.5017 13.6259C89.5017 13.6211 89.5017 13.6163 89.5017 13.6116C89.5017 13.6069 89.5017 13.6023 89.5017 13.5977C89.5017 13.5931 89.5017 13.5885 89.5017 13.5841C89.5017 13.5796 89.5017 13.5751 89.5017 13.5708C89.5017 13.5664 89.5017 13.5621 89.5017 13.5578C89.5017 13.5535 89.5017 13.5493 89.5017 13.5452C89.5017 13.541 89.5017 13.5369 89.5017 13.5329C89.5017 13.5288 89.5017 13.5248 89.5017 13.5209C89.5017 13.5169 89.5017 13.5131 89.5017 13.5092C89.5017 13.5054 89.5017 13.5016 89.5017 13.4979C89.5017 13.4942 89.5017 13.4905 89.5017 13.4869C89.5017 13.4833 89.5017 13.4798 89.5017 13.4763C89.5017 13.4728 89.5017 13.4694 89.5017 13.466C89.5017 13.4626 89.5017 13.4593 89.5017 13.456C89.5017 13.4527 89.5017 13.4495 89.5017 13.4464C89.5017 13.4432 89.5017 13.4401 89.5017 13.4371C89.5017 13.434 89.5017 13.431 89.5017 13.4281C89.5017 13.4252 89.5017 13.4223 89.5017 13.4195C89.5017 13.4167 89.5017 13.4139 89.5017 13.4112C89.5017 13.4085 89.5017 13.4058 89.5017 13.4033C89.5017 13.4007 89.5017 13.3981 89.5017 13.3957C89.5017 13.3932 89.5017 13.3908 89.5017 13.3884C89.5017 13.386 89.5017 13.3837 89.5017 13.3815C89.5017 13.3792 89.5017 13.3771 89.5017 13.3749C89.5017 13.3728 89.5017 13.3707 89.5017 13.3687C89.5017 13.3667 89.5017 13.3647 89.5017 13.3628C89.5017 13.3609 89.5017 13.3591 89.5017 13.3573C89.5017 13.3555 89.5017 13.3538 89.5017 13.3521C89.5017 13.3505 89.5017 13.3489 89.5017 13.3473C89.5017 13.3458 89.5017 13.3443 89.5017 13.3428C89.5017 13.3414 89.5017 13.34 89.5017 13.3387C89.5017 13.3374 89.5017 13.3362 89.5017 13.335C89.5017 13.3338 89.5017 13.3326 89.5017 13.3315C89.5017 13.3305 89.5017 13.3294 89.5017 13.3285C89.5017 13.3275 89.5017 13.3266 89.5017 13.3258C89.5017 13.3249 89.5017 13.3242 89.5017 13.3234C89.5017 13.3227 89.5017 13.3221 89.5017 13.3215C89.5017 13.3209 89.5017 13.3203 89.5017 13.3198C89.5017 13.3193 89.5017 13.3189 89.5017 13.3186C89.5017 13.3182 89.5017 13.3179 89.5017 13.3177C89.5017 13.3174 89.5017 13.3172 89.5017 13.3171C89.5017 13.317 89.5017 13.3169 87.0017 13.3169C84.5017 13.3169 84.5017 13.317 84.5017 13.3171C84.5017 13.3172 84.5017 13.3174 84.5017 13.3177C84.5017 13.3179 84.5017 13.3182 84.5017 13.3186C84.5017 13.3189 84.5017 13.3193 84.5017 13.3198C84.5017 13.3203 84.5017 13.3209 84.5017 13.3215C84.5017 13.3221 84.5017 13.3227 84.5017 13.3234C84.5017 13.3242 84.5017 13.3249 84.5017 13.3258C84.5017 13.3266 84.5017 13.3275 84.5017 13.3285C84.5017 13.3294 84.5017 13.3305 84.5017 13.3315C84.5017 13.3326 84.5017 13.3338 84.5017 13.335C84.5017 13.3362 84.5017 13.3374 84.5017 13.3387C84.5017 13.34 84.5017 13.3414 84.5017 13.3428C84.5017 13.3443 84.5017 13.3458 84.5017 13.3473C84.5017 13.3489 84.5017 13.3505 84.5017 13.3521C84.5017 13.3538 84.5017 13.3555 84.5017 13.3573C84.5017 13.3591 84.5017 13.3609 84.5017 13.3628C84.5017 13.3647 84.5017 13.3667 84.5017 13.3687C84.5017 13.3707 84.5017 13.3728 84.5017 13.3749C84.5017 13.3771 84.5017 13.3792 84.5017 13.3815C84.5017 13.3837 84.5017 13.386 84.5017 13.3884C84.5017 13.3908 84.5017 13.3932 84.5017 13.3957C84.5017 13.3981 84.5017 13.4007 84.5017 13.4033C84.5017 13.4058 84.5017 13.4085 84.5017 13.4112C84.5017 13.4139 84.5017 13.4167 84.5017 13.4195C84.5017 13.4223 84.5017 13.4252 84.5017 13.4281C84.5017 13.431 84.5017 13.434 84.5017 13.4371C84.5017 13.4401 84.5017 13.4432 84.5017 13.4464C84.5017 13.4495 84.5017 13.4527 84.5017 13.456C84.5017 13.4593 84.5017 13.4626 84.5017 13.466C84.5017 13.4694 84.5017 13.4728 84.5017 13.4763C84.5017 13.4798 84.5017 13.4833 84.5017 13.4869C84.5017 13.4905 84.5017 13.4942 84.5017 13.4979C84.5017 13.5016 84.5017 13.5054 84.5017 13.5092C84.5017 13.5131 84.5017 13.5169 84.5017 13.5209C84.5017 13.5248 84.5017 13.5288 84.5017 13.5329C84.5017 13.5369 84.5017 13.541 84.5017 13.5452C84.5017 13.5493 84.5017 13.5535 84.5017 13.5578C84.5017 13.5621 84.5017 13.5664 84.5017 13.5708C84.5017 13.5751 84.5017 13.5796 84.5017 13.5841C84.5017 13.5885 84.5017 13.5931 84.5017 13.5977C84.5017 13.6023 84.5017 13.6069 84.5017 13.6116C84.5017 13.6163 84.5017 13.6211 84.5017 13.6259C84.5017 13.6307 84.5017 13.6355 84.5017 13.6405C84.5017 13.6454 84.5017 13.6504 84.5017 13.6554C84.5017 13.6604 84.5017 13.6655 84.5017 13.6706C84.5017 13.6757 84.5017 13.6809 84.5017 13.6862C84.5017 13.6914 84.5017 13.6967 84.5017 13.702C84.5017 13.7074 84.5017 13.7128 84.5017 13.7182C84.5017 13.7237 84.5017 13.7292 84.5017 13.7347C84.5017 13.7403 84.5017 13.7459 84.5017 13.7516C84.5017 13.7572 84.5017 13.7629 84.5017 13.7687C84.5017 13.7745 84.5017 13.7803 84.5017 13.7862C84.5017 13.792 84.5017 13.7979 84.5017 13.8039C84.5017 13.8099 84.5017 13.8159 84.5017 13.822C84.5017 13.8281 84.5017 13.8342 84.5017 13.8404C84.5017 13.8466 84.5017 13.8528 84.5017 13.8591C84.5017 13.8654 84.5017 13.8717 84.5017 13.8781C84.5017 13.8845 84.5017 13.8909 84.5017 13.8974C84.5017 13.9039 84.5017 13.9105 84.5017 13.9171C84.5017 13.9237 84.5017 13.9303 84.5017 13.937C84.5017 13.9437 84.5017 13.9504 84.5017 13.9572C84.5017 13.964 84.5017 13.9709 84.5017 13.9778C84.5017 13.9847 84.5017 13.9916 84.5017 13.9986C84.5017 14.0056 84.5017 14.0127 84.5017 14.0198C84.5017 14.0269 84.5017 14.0341 84.5017 14.0413C84.5017 14.0485 84.5017 14.0557 84.5017 14.063C84.5017 14.0703 84.5017 14.0777 84.5017 14.0851C84.5017 14.0925 84.5017 14.0999 84.5017 14.1074C84.5017 14.1149 84.5017 14.1225 84.5017 14.1301C84.5017 14.1377 84.5017 14.1453 84.5017 14.153C84.5017 14.1607 84.5017 14.1685 84.5017 14.1763C84.5017 14.1841 84.5017 14.1919 84.5017 14.1998C84.5017 14.2077 84.5017 14.2157 84.5017 14.2237C84.5017 14.2317 84.5017 14.2397 84.5017 14.2478C84.5017 14.2559 84.5017 14.264 84.5017 14.2722C84.5017 14.2804 84.5017 14.2886 84.5017 14.2969C84.5017 14.3052 84.5017 14.3135 84.5017 14.3219C84.5017 14.3303 84.5017 14.3387 84.5017 14.3472C84.5017 14.3557 84.5017 14.3642 84.5017 14.3728C84.5017 14.3814 84.5017 14.39 84.5017 14.3987C84.5017 14.4073 84.5017 14.4161 84.5017 14.4248C84.5017 14.4336 84.5017 14.4424 84.5017 14.4513C84.5017 14.4601 84.5017 14.469 84.5017 14.478C84.5017 14.487 84.5017 14.496 84.5017 14.505C84.5017 14.5141 84.5017 14.5232 84.5017 14.5323C84.5017 14.5415 84.5017 14.5506 84.5017 14.5599C84.5017 14.5691 84.5017 14.5784 84.5017 14.5877C84.5017 14.5971 84.5017 14.6064 84.5017 14.6159C84.5017 14.6253 84.5017 14.6348 84.5017 14.6443C84.5017 14.6538 84.5017 14.6634 84.5017 14.673C84.5017 14.6826 84.5017 14.6922 84.5017 14.7019C84.5017 14.7116 84.5017 14.7214 84.5017 14.7312C84.5017 14.741 84.5017 14.7508 84.5017 14.7607C84.5017 14.7706 84.5017 14.7805 84.5017 14.7905C84.5017 14.8005 84.5017 14.8105 84.5017 14.8206C84.5017 14.8306 84.5017 14.8408 84.5017 14.8509C84.5017 14.8611 84.5017 14.8713 84.5017 14.8815C84.5017 14.8918 84.5017 14.9021 84.5017 14.9124C84.5017 14.9227 84.5017 14.9331 84.5017 14.9435C84.5017 14.954 84.5017 14.9644 84.5017 14.975C84.5017 14.9855 84.5017 14.996 84.5017 15.0067C84.5017 15.0173 84.5017 15.0279 84.5017 15.0386C84.5017 15.0493 84.5017 15.06 84.5017 15.0708C84.5017 15.0816 84.5017 15.0924 84.5017 15.1033C84.5017 15.1142 84.5017 15.1251 84.5017 15.136C84.5017 15.147 84.5017 15.158 84.5017 15.169C84.5017 15.1801 84.5017 15.1912 84.5017 15.2023C84.5017 15.2134 84.5017 15.2246 84.5017 15.2358C84.5017 15.2471 84.5017 15.2583 84.5017 15.2696C84.5017 15.2809 84.5017 15.2923 84.5017 15.3037C84.5017 15.3151 84.5017 15.3265 84.5017 15.338C84.5017 15.3495 84.5017 15.361 84.5017 15.3725C84.5017 15.3841 84.5017 15.3957 84.5017 15.4074C84.5017 15.419 84.5017 15.4307 84.5017 15.4424C84.5017 15.4542 84.5017 15.4659 84.5017 15.4778C84.5017 15.4896 84.5017 15.5014 84.5017 15.5133C84.5017 15.5252 84.5017 15.5372 84.5017 15.5492C84.5017 15.5611 84.5017 15.5732 84.5017 15.5852C84.5017 15.5973 84.5017 15.6094 84.5017 15.6216C84.5017 15.6337 84.5017 15.6459 84.5017 15.6581C84.5017 15.6704 84.5017 15.6827 84.5017 15.695C84.5017 15.7073 84.5017 15.7196 84.5017 15.732C84.5017 15.7444 84.5017 15.7569 84.5017 15.7694C84.5017 15.7818 84.5017 15.7944 84.5017 15.8069C84.5017 15.8195 84.5017 15.8321 84.5017 15.8447C84.5017 15.8574 84.5017 15.8701 84.5017 15.8828C84.5017 15.8955 84.5017 15.9083 84.5017 15.9211C84.5017 15.9339 84.5017 15.9467 84.5017 15.9596C84.5017 15.9725 84.5017 15.9854 84.5017 15.9984C84.5017 16.0114 84.5017 16.0244 84.5017 16.0374C84.5017 16.0504 84.5017 16.0635 84.5017 16.0767C84.5017 16.0898 84.5017 16.1029 84.5017 16.1161C84.5017 16.1293 84.5017 16.1426 84.5017 16.1559C84.5017 16.1692 84.5017 16.1825 84.5017 16.1958C84.5017 16.2092 84.5017 16.2226 84.5017 16.236C84.5017 16.2495 84.5017 16.2629 84.5017 16.2765C84.5017 16.29 84.5017 16.3035 84.5017 16.3171C84.5017 16.3307 84.5017 16.3443 84.5017 16.358C84.5017 16.3717 84.5017 16.3854 84.5017 16.3991C84.5017 16.4129 84.5017 16.4267 84.5017 16.4405C84.5017 16.4543 84.5017 16.4682 84.5017 16.4821C84.5017 16.496 84.5017 16.5099 84.5017 16.5239C84.5017 16.5378 84.5017 16.5519 84.5017 16.5659C84.5017 16.58 84.5017 16.594 84.5017 16.6082C84.5017 16.6223 84.5017 16.6365 84.5017 16.6507C84.5017 16.6649 84.5017 16.6791 84.5017 16.6934C84.5017 16.7076 84.5017 16.722 84.5017 16.7363C84.5017 16.7506 84.5017 16.765 84.5017 16.7795C84.5017 16.7939 84.5017 16.8083 84.5017 16.8228C84.5017 16.8373 84.5017 16.8519 84.5017 16.8664C84.5017 16.881 84.5017 16.8956 84.5017 16.9102C84.5017 16.9249 84.5017 16.9396 84.5017 16.9543C84.5017 16.969 84.5017 16.9837 84.5017 16.9985C84.5017 17.0133 84.5017 17.0281 84.5017 17.043C84.5017 17.0578 84.5017 17.0727 84.5017 17.0877C84.5017 17.1026 84.5017 17.1176 84.5017 17.1326C84.5017 17.1476 84.5017 17.1626 84.5017 17.1777C84.5017 17.1927 84.5017 17.2078 84.5017 17.223C84.5017 17.2381 84.5017 17.2533 84.5017 17.2685C84.5017 17.2837 84.5017 17.299 84.5017 17.3143C84.5017 17.3295 84.5017 17.3449 84.5017 17.3602C84.5017 17.3756 84.5017 17.3909 84.5017 17.4064C84.5017 17.4218 84.5017 17.4372 84.5017 17.4527C84.5017 17.4682 84.5017 17.4837 84.5017 17.4993C84.5017 17.5149 84.5017 17.5305 84.5017 17.5461C84.5017 17.5617 84.5017 17.5774 84.5017 17.5931C84.5017 17.6088 84.5017 17.6245 84.5017 17.6403C84.5017 17.656 84.5017 17.6718 84.5017 17.6876C84.5017 17.7035 84.5017 17.7193 84.5017 17.7352C84.5017 17.7511 84.5017 17.7671 84.5017 17.783C84.5017 17.799 84.5017 17.815 84.5017 17.831C84.5017 17.847 84.5017 17.8631 84.5017 17.8792C84.5017 17.8953 84.5017 17.9114 84.5017 17.9276C84.5017 17.9437 84.5017 17.9599 84.5017 17.9762C84.5017 17.9924 84.5017 18.0087 84.5017 18.0249C84.5017 18.0412 84.5017 18.0576 84.5017 18.0739C84.5017 18.0903 84.5017 18.1067 84.5017 18.1231C84.5017 18.1395 84.5017 18.156 84.5017 18.1724C84.5017 18.1889 84.5017 18.2055 84.5017 18.222C84.5017 18.2386 84.5017 18.2551 84.5017 18.2717C84.5017 18.2884 84.5017 18.305 84.5017 18.3217C84.5017 18.3384 84.5017 18.3551 84.5017 18.3718C84.5017 18.3885 84.5017 18.4053 84.5017 18.4221C84.5017 18.4389 84.5017 18.4557 84.5017 18.4726C84.5017 18.4895 84.5017 18.5064 84.5017 18.5233C84.5017 18.5402 84.5017 18.5572 84.5017 18.5742C84.5017 18.5911 84.5017 18.6082 84.5017 18.6252C84.5017 18.6423 84.5017 18.6593 84.5017 18.6764C84.5017 18.6936 84.5017 18.7107 84.5017 18.7279C84.5017 18.745 84.5017 18.7622 84.5017 18.7795C84.5017 18.7967 84.5017 18.814 84.5017 18.8312C84.5017 18.8485 84.5017 18.8659 84.5017 18.8832C84.5017 18.9005 84.5017 18.9179 84.5017 18.9353C84.5017 18.9527 84.5017 18.9702 84.5017 18.9877C84.5017 19.0051 84.5017 19.0226 84.5017 19.0401C84.5017 19.0577 84.5017 19.0752 84.5017 19.0928C84.5017 19.1104 84.5017 19.128 84.5017 19.1457C84.5017 19.1633 84.5017 19.181 84.5017 19.1987C84.5017 19.2164 84.5017 19.2341 84.5017 19.2519C84.5017 19.2696 84.5017 19.2874 84.5017 19.3052C84.5017 19.323 84.5017 19.3409 84.5017 19.3587C84.5017 19.3766 84.5017 19.3945 84.5017 19.4124C84.5017 19.4304 84.5017 19.4483 84.5017 19.4663C84.5017 19.4843 84.5017 19.5023 84.5017 19.5203C84.5017 19.5384 84.5017 19.5564 84.5017 19.5745C84.5017 19.5926 84.5017 19.6108 84.5017 19.6289C84.5017 19.6471 84.5017 19.6652 84.5017 19.6834C84.5017 19.7016 84.5017 19.7199 84.5017 19.7381C84.5017 19.7564 84.5017 19.7747 84.5017 19.793C84.5017 19.8113 84.5017 19.8297 84.5017 19.848C84.5017 19.8664 84.5017 19.8848 84.5017 19.9032C84.5017 19.9216 84.5017 19.9401 84.5017 19.9585C84.5017 19.977 84.5017 19.9955 84.5017 20.014C84.5017 20.0326 84.5017 20.0511 84.5017 20.0697C84.5017 20.0883 84.5017 20.1069 84.5017 20.1255C84.5017 20.1442 84.5017 20.1628 84.5017 20.1815C84.5017 20.2002 84.5017 20.2189 84.5017 20.2376C84.5017 20.2564 84.5017 20.2751 84.5017 20.2939C84.5017 20.3127 84.5017 20.3315 84.5017 20.3503C84.5017 20.3692 84.5017 20.388 84.5017 20.4069C84.5017 20.4258 84.5017 20.4447 84.5017 20.4637C84.5017 20.4826 84.5017 20.5016 84.5017 20.5206C84.5017 20.5395 84.5017 20.5586 84.5017 20.5776C84.5017 20.5966 84.5017 20.6157 84.5017 20.6348C84.5017 20.6539 84.5017 20.673 84.5017 20.6921C84.5017 20.7113 84.5017 20.7304 84.5017 20.7496C84.5017 20.7688 84.5017 20.788 84.5017 20.8072C84.5017 20.8265 84.5017 20.8457 84.5017 20.865C84.5017 20.8843 84.5017 20.9036 84.5017 20.9229C84.5017 20.9422 84.5017 20.9616 84.5017 20.981C84.5017 21.0004 84.5017 21.0198 84.5017 21.0392C84.5017 21.0586 84.5017 21.078 84.5017 21.0975C84.5017 21.117 84.5017 21.1365 84.5017 21.156C84.5017 21.1755 84.5017 21.195 84.5017 21.2146C84.5017 21.2342 84.5017 21.2538 84.5017 21.2734C84.5017 21.293 84.5017 21.3126 84.5017 21.3323C84.5017 21.3519 84.5017 21.3716 84.5017 21.3913C84.5017 21.411 84.5017 21.4307 84.5017 21.4505C84.5017 21.4702 84.5017 21.49 84.5017 21.5098C84.5017 21.5295 84.5017 21.5494 84.5017 21.5692C84.5017 21.589 84.5017 21.6089 84.5017 21.6287C84.5017 21.6486 84.5017 21.6685 84.5017 21.6884C84.5017 21.7084 84.5017 21.7283 84.5017 21.7483C84.5017 21.7682 84.5017 21.7882 84.5017 21.8082C84.5017 21.8282 84.5017 21.8482 84.5017 21.8683C84.5017 21.8883 84.5017 21.9084 84.5017 21.9285C84.5017 21.9486 84.5017 21.9687 84.5017 21.9888C84.5017 22.009 84.5017 22.0291 84.5017 22.0493C84.5017 22.0695 84.5017 22.0897 84.5017 22.1099C84.5017 22.1301 84.5017 22.1503 84.5017 22.1706C84.5017 22.1908 84.5017 22.2111 84.5017 22.2314C84.5017 22.2517 84.5017 22.272 84.5017 22.2924C84.5017 22.3127 84.5017 22.3331 84.5017 22.3534C84.5017 22.3738 84.5017 22.3942 84.5017 22.4146C84.5017 22.4351 84.5017 22.4555 84.5017 22.4759C84.5017 22.4964 84.5017 22.5169 84.5017 22.5374C84.5017 22.5579 84.5017 22.5784 84.5017 22.5989C84.5017 22.6195 84.5017 22.64 84.5017 22.6606C84.5017 22.6811 84.5017 22.7017 84.5017 22.7223C84.5017 22.743 84.5017 22.7636 84.5017 22.7842C84.5017 22.8049 84.5017 22.8256 84.5017 22.8462C84.5017 22.8669 84.5017 22.8876 84.5017 22.9083C84.5017 22.9291 84.5017 22.9498 84.5017 22.9706C84.5017 22.9913 84.5017 23.0121 84.5017 23.0329C84.5017 23.0537 84.5017 23.0745 84.5017 23.0953C84.5017 23.1162 84.5017 23.137 84.5017 23.1579C84.5017 23.1788 84.5017 23.1996 84.5017 23.2206C84.5017 23.2415 84.5017 23.2624 84.5017 23.2833C84.5017 23.3043 84.5017 23.3252 84.5017 23.3462C84.5017 23.3672 84.5017 23.3881 84.5017 23.4092C84.5017 23.4302 84.5017 23.4512 84.5017 23.4722C84.5017 23.4933 84.5017 23.5143 84.5017 23.5354C84.5017 23.5565 84.5017 23.5776 84.5017 23.5987C84.5017 23.6198 84.5017 23.6409 84.5017 23.6621C84.5017 23.6832 84.5017 23.7044 84.5017 23.7255C84.5017 23.7467 84.5017 23.7679 84.5017 23.7891C84.5017 23.8103 84.5017 23.8315 84.5017 23.8528C84.5017 23.874 84.5017 23.8953 84.5017 23.9165C84.5017 23.9378 84.5017 23.9591 84.5017 23.9804C84.5017 24.0017 84.5017 24.023 84.5017 24.0444C84.5017 24.0657 84.5017 24.0871 84.5017 24.1084C84.5017 24.1298 84.5017 24.1512 84.5017 24.1726C84.5017 24.194 84.5017 24.2154 84.5017 24.2368C84.5017 24.2582 84.5017 24.2797 84.5017 24.3011C84.5017 24.3226 84.5017 24.3441 84.5017 24.3655C84.5017 24.387 84.5017 24.4085 84.5017 24.43C84.5017 24.4516 84.5017 24.4731 84.5017 24.4946C84.5017 24.5162 84.5017 24.5377 84.5017 24.5593C84.5017 24.5809 84.5017 24.6025 84.5017 24.6241C84.5017 24.6457 84.5017 24.6673 84.5017 24.6889C84.5017 24.7106 84.5017 24.7322 84.5017 24.7539C84.5017 24.7755 84.5017 24.7972 84.5017 24.8189C84.5017 24.8406 84.5017 24.8623 84.5017 24.884C84.5017 24.9057 84.5017 24.9274 84.5017 24.9491C84.5017 24.9709 84.5017 24.9926 84.5017 25.0144C84.5017 25.0362 84.5017 25.0579 84.5017 25.0797C84.5017 25.1015 84.5017 25.1233 84.5017 25.1451C84.5017 25.167 84.5017 25.1888 84.5017 25.2106C84.5017 25.2325 84.5017 25.2543 84.5017 25.2762C84.5017 25.2981 84.5017 25.32 84.5017 25.3418C84.5017 25.3637 84.5017 25.3856 84.5017 25.4076C84.5017 25.4295 84.5017 25.4514 84.5017 25.4734C84.5017 25.4953 84.5017 25.5172 84.5017 25.5392C84.5017 25.5612 84.5017 25.5832 84.5017 25.6051C84.5017 25.6271 84.5017 25.6491 84.5017 25.6711C84.5017 25.6932 84.5017 25.7152 84.5017 25.7372C84.5017 25.7593 84.5017 25.7813 84.5017 25.8034C84.5017 25.8254 84.5017 25.8475 84.5017 25.8696C84.5017 25.8916 84.5017 25.9137 84.5017 25.9358C84.5017 25.9579 84.5017 25.9801 84.5017 26.0022C84.5017 26.0243 84.5017 26.0464 84.5017 26.0686C84.5017 26.0907 84.5017 26.1129 84.5017 26.135C84.5017 26.1572 84.5017 26.1794 84.5017 26.2016C84.5017 26.2238 84.5017 26.246 84.5017 26.2682C84.5017 26.2904 84.5017 26.3126 84.5017 26.3348C84.5017 26.357 84.5017 26.3793 84.5017 26.4015C84.5017 26.4238 84.5017 26.446 84.5017 26.4683C84.5017 26.4906 84.5017 26.5128 84.5017 26.5351C84.5017 26.5574 84.5017 26.5797 84.5017 26.602C84.5017 26.6243 84.5017 26.6466 84.5017 26.6689C84.5017 26.6913 84.5017 26.7136 84.5017 26.7359C84.5017 26.7583 84.5017 26.7806 84.5017 26.803C84.5017 26.8253 84.5017 26.8477 84.5017 26.8701C84.5017 26.8925 84.5017 26.9149 84.5017 26.9372C84.5017 26.9596 84.5017 26.982 84.5017 27.0044C84.5017 27.0269 84.5017 27.0493 84.5017 27.0717C84.5017 27.0941 84.5017 27.1166 84.5017 27.139C84.5017 27.1614 84.5017 27.1839 84.5017 27.2064C84.5017 27.2288 84.5017 27.2513 84.5017 27.2738C84.5017 27.2962 84.5017 27.3187 84.5017 27.3412C84.5017 27.3637 84.5017 27.3862 84.5017 27.4087C84.5017 27.4312 84.5017 27.4537 84.5017 27.4762C84.5017 27.4987 84.5017 27.5213 84.5017 27.5438C84.5017 27.5663 84.5017 27.5889 84.5017 27.6114C84.5017 27.634 84.5017 27.6565 84.5017 27.6791C84.5017 27.7016 84.5017 27.7242 84.5017 27.7468C84.5017 27.7693 84.5017 27.7919 84.5017 27.8145C84.5017 27.8371 84.5017 27.8597 84.5017 27.8823C84.5017 27.9049 84.5017 27.9275 84.5017 27.9501C84.5017 27.9727 84.5017 27.9953 84.5017 28.0179C84.5017 28.0406 84.5017 28.0632 84.5017 28.0858C84.5017 28.1085 84.5017 28.1311 84.5017 28.1538C84.5017 28.1764 84.5017 28.1991 84.5017 28.2217C84.5017 28.2444 84.5017 28.267 84.5017 28.2897C84.5017 28.3124 84.5017 28.335 84.5017 28.3577C84.5017 28.3804 84.5017 28.4031 84.5017 28.4258C84.5017 28.4485 84.5017 28.4711 84.5017 28.4938C84.5017 28.5165 84.5017 28.5392 84.5017 28.5619C84.5017 28.5847 84.5017 28.6074 84.5017 28.6301C84.5017 28.6528 84.5017 28.6755 84.5017 28.6982C84.5017 28.721 84.5017 28.7437 84.5017 28.7664C84.5017 28.7892 84.5017 28.8119 84.5017 28.8346C84.5017 28.8574 84.5017 28.8801 84.5017 28.9029C84.5017 28.9256 84.5017 28.9484 84.5017 28.9711C84.5017 28.9939 84.5017 29.0167 84.5017 29.0394C84.5017 29.0622 84.5017 29.085 84.5017 29.1077C84.5017 29.1305 84.5017 29.1533 84.5017 29.176C84.5017 29.1988 84.5017 29.2216 84.5017 29.2444C84.5017 29.2672 84.5017 29.29 84.5017 29.3127C84.5017 29.3355 84.5017 29.3583 84.5017 29.3811C84.5017 29.4039 84.5017 29.4267 84.5017 29.4495C84.5017 29.4723 84.5017 29.4951 84.5017 29.5179C84.5017 29.5407 84.5017 29.5635 84.5017 29.5863C84.5017 29.6091 84.5017 29.632 84.5017 29.6548C84.5017 29.6776 84.5017 29.7004 84.5017 29.7232C84.5017 29.746 84.5017 29.7689 84.5017 29.7917C84.5017 29.8145 84.5017 29.8373 84.5017 29.8601C84.5017 29.883 84.5017 29.9058 84.5017 29.9286C84.5017 29.9515 84.5017 29.9743 84.5017 29.9971C84.5017 30.0199 84.5017 30.0428 84.5017 30.0656C84.5017 30.0884 84.5017 30.1113 84.5017 30.1341C84.5017 30.1569 84.5017 30.1798 84.5017 30.2026C84.5017 30.2254 84.5017 30.2483 84.5017 30.2711C84.5017 30.294 84.5017 30.3168 84.5017 30.3396C84.5017 30.3625 84.5017 30.3853 84.5017 30.4081C84.5017 30.431 84.5017 30.4538 84.5017 30.4767C84.5017 30.4995 84.5017 30.5223 84.5017 30.5452C84.5017 30.568 84.5017 30.5909 84.5017 30.6137C84.5017 30.6365 84.5017 30.6594 84.5017 30.6822C84.5017 30.7051 84.5017 30.7279 84.5017 30.7507C84.5017 30.7736 84.5017 30.7964 84.5017 30.8192C84.5017 30.8421 84.5017 30.8649 84.5017 30.8877C84.5017 30.9106 84.5017 30.9334 84.5017 30.9563C84.5017 30.9791 84.5017 31.0019 84.5017 31.0247C84.5017 31.0476 84.5017 31.0704 84.5017 31.0932C84.5017 31.1161 84.5017 31.1389 84.5017 31.1617C84.5017 31.1845 84.5017 31.2074 84.5017 31.2302C84.5017 31.253 84.5017 31.2758 84.5017 31.2987C84.5017 31.3215 84.5017 31.3443 84.5017 31.3671C84.5017 31.3899 84.5017 31.4127 84.5017 31.4355C84.5017 31.4584 84.5017 31.4812 84.5017 31.504C84.5017 31.5268 84.5017 31.5496 84.5017 31.5724C84.5017 31.5952 84.5017 31.618 84.5017 31.6408C84.5017 31.6636 84.5017 31.6864 84.5017 31.7092C84.5017 31.7319 84.5017 31.7547 84.5017 31.7775C84.5017 31.8003 84.5017 31.8231 84.5017 31.8459C84.5017 31.8686 84.5017 31.8914 84.5017 31.9142C84.5017 31.937 84.5017 31.9597 84.5017 31.9825C84.5017 32.0053 84.5017 32.028 84.5017 32.0508C84.5017 32.0736 84.5017 32.0963 84.5017 32.1191C84.5017 32.1418 84.5017 32.1646 84.5017 32.1873C84.5017 32.2101 84.5017 32.2328 84.5017 32.2555C84.5017 32.2783 84.5017 32.301 84.5017 32.3237C84.5017 32.3465 84.5017 32.3692 84.5017 32.3919C84.5017 32.4146 84.5017 32.4373 84.5017 32.46C84.5017 32.4827 84.5017 32.5055 84.5017 32.5282C84.5017 32.5509 84.5017 32.5736 84.5017 32.5962C84.5017 32.6189 84.5017 32.6416 84.5017 32.6643C84.5017 32.687 84.5017 32.7097 84.5017 32.7323C84.5017 32.755 84.5017 32.7777 84.5017 32.8003C84.5017 32.823 84.5017 32.8456 84.5017 32.8683C84.5017 32.8909 84.5017 32.9136 84.5017 32.9362C84.5017 32.9589 84.5017 32.9815 84.5017 33.0041C84.5017 33.0268 84.5017 33.0494 84.5017 33.072C84.5017 33.0946 84.5017 33.1172 84.5017 33.1398C84.5017 33.1624 84.5017 33.185 84.5017 33.2076C84.5017 33.2302 84.5017 33.2528 84.5017 33.2754C84.5017 33.2979 84.5017 33.3205 84.5017 33.3431C84.5017 33.3656 84.5017 33.3882 84.5017 33.4107C84.5017 33.4333 84.5017 33.4558 84.5017 33.4784C84.5017 33.5009 84.5017 33.5235 84.5017 33.546C84.5017 33.5685 84.5017 33.591 84.5017 33.6135C84.5017 33.636 84.5017 33.6585 84.5017 33.681C84.5017 33.7035 84.5017 33.726 84.5017 33.7485C84.5017 33.771 84.5017 33.7934 84.5017 33.8159C84.5017 33.8384 84.5017 33.8608 84.5017 33.8833C84.5017 33.9057 84.5017 33.9282 84.5017 33.9506C84.5017 33.973 84.5017 33.9954 84.5017 34.0179C84.5017 34.0403 84.5017 34.0627 84.5017 34.0851C84.5017 34.1075 84.5017 34.1299 84.5017 34.1523C84.5017 34.1746 84.5017 34.197 84.5017 34.2194C84.5017 34.2417 84.5017 34.2641 84.5017 34.2864C84.5017 34.3088 84.5017 34.3311 84.5017 34.3535C84.5017 34.3758 84.5017 34.3981 84.5017 34.4204C84.5017 34.4427 84.5017 34.465 84.5017 34.4873C84.5017 34.5096 84.5017 34.5319 84.5017 34.5542C84.5017 34.5764 84.5017 34.5987 84.5017 34.621C84.5017 34.6432 84.5017 34.6654 84.5017 34.6877C84.5017 34.7099 84.5017 34.7321 84.5017 34.7544C84.5017 34.7766 84.5017 34.7988 84.5017 34.821C84.5017 34.8432 84.5017 34.8653 84.5017 34.8875C84.5017 34.9097 84.5017 34.9319 84.5017 34.954C84.5017 34.9762 84.5017 34.9983 84.5017 35.0204C84.5017 35.0426 84.5017 35.0647 84.5017 35.0868C84.5017 35.1089 84.5017 35.131 84.5017 35.1531C84.5017 35.1752 84.5017 35.1973 84.5017 35.2193C84.5017 35.2414 84.5017 35.2634 84.5017 35.2855C84.5017 35.3075 84.5017 35.3296 84.5017 35.3516C84.5017 35.3736 84.5017 35.3956 84.5017 35.4176C84.5017 35.4396 84.5017 35.4616 84.5017 35.4836C84.5017 35.5055 84.5017 35.5275 84.5017 35.5495C84.5017 35.5714 84.5017 35.5933 84.5017 35.6153C84.5017 35.6372 84.5017 35.6591 84.5017 35.681C84.5017 35.7029 84.5017 35.7248 84.5017 35.7467C84.5017 35.7686 84.5017 35.7904 84.5017 35.8123C84.5017 35.8341 84.5017 35.856 84.5017 35.8778C84.5017 35.8996 84.5017 35.9214 84.5017 35.9432C84.5017 35.965 84.5017 35.9868 84.5017 36.0086C84.5017 36.0304 84.5017 36.0521 84.5017 36.0739C84.5017 36.0956 84.5017 36.1174 84.5017 36.1391C84.5017 36.1608 84.5017 36.1825 84.5017 36.2042C84.5017 36.2259 84.5017 36.2476 84.5017 36.2693C84.5017 36.2909 84.5017 36.3126 84.5017 36.3342C84.5017 36.3559 84.5017 36.3775 84.5017 36.3991C84.5017 36.4207 84.5017 36.4423 84.5017 36.4639C84.5017 36.4855 84.5017 36.507 84.5017 36.5286C84.5017 36.5502 84.5017 36.5717 84.5017 36.5932C84.5017 36.6148 84.5017 36.6363 84.5017 36.6578C84.5017 36.6793 84.5017 36.7007 84.5017 36.7222C84.5017 36.7437 84.5017 36.7651 84.5017 36.7866C84.5017 36.808 84.5017 36.8294 84.5017 36.8508C84.5017 36.8722 84.5017 36.8936 84.5017 36.915C84.5017 36.9364 84.5017 36.9577 84.5017 36.9791C84.5017 37.0004 84.5017 37.0218 84.5017 37.0431C84.5017 37.0644 84.5017 37.0857 84.5017 37.107C84.5017 37.1283 84.5017 37.1495 84.5017 37.1708C84.5017 37.192 84.5017 37.2133 84.5017 37.2345C84.5017 37.2557 84.5017 37.2769 84.5017 37.2981C84.5017 37.3193 84.5017 37.3405 84.5017 37.3616C84.5017 37.3828 84.5017 37.4039 84.5017 37.425C84.5017 37.4461 84.5017 37.4673 84.5017 37.4883C84.5017 37.5094 84.5017 37.5305 84.5017 37.5516C84.5017 37.5726 84.5017 37.5936 84.5017 37.6147C84.5017 37.6357 84.5017 37.6567 84.5017 37.6777C84.5017 37.6987 84.5017 37.7196 84.5017 37.7406C84.5017 37.7615 84.5017 37.7825 84.5017 37.8034C84.5017 37.8243 84.5017 37.8452 84.5017 37.8661C84.5017 37.8869 84.5017 37.9078 84.5017 37.9287C84.5017 37.9495 84.5017 37.9703 84.5017 37.9911C84.5017 38.0119 84.5017 38.0327 84.5017 38.0535C84.5017 38.0743 84.5017 38.095 84.5017 38.1158C84.5017 38.1365 84.5017 38.1572 84.5017 38.1779C84.5017 38.1986 84.5017 38.2193 84.5017 38.24C84.5017 38.2606 84.5017 38.2813 84.5017 38.3019C84.5017 38.3225 84.5017 38.3431 84.5017 38.3637C84.5017 38.3843 84.5017 38.4049 84.5017 38.4254C84.5017 38.446 84.5017 38.4665 84.5017 38.487C84.5017 38.5075 84.5017 38.528 84.5017 38.5485C84.5017 38.5689 84.5017 38.5894 84.5017 38.6098C84.5017 38.6302 84.5017 38.6507 84.5017 38.671C84.5017 38.6914 84.5017 38.7118 84.5017 38.7322C84.5017 38.7525 84.5017 38.7728 84.5017 38.7932C84.5017 38.8135 84.5017 38.8338 84.5017 38.854C84.5017 38.8743 84.5017 38.8945 84.5017 38.9148C84.5017 38.935 84.5017 38.9552 84.5017 38.9754C84.5017 38.9956 84.5017 39.0158 84.5017 39.0359C84.5017 39.0561 84.5017 39.0762 84.5017 39.0963C84.5017 39.1164 84.5017 39.1365 84.5017 39.1565C84.5017 39.1766 84.5017 39.1967 84.5017 39.2167C84.5017 39.2367 84.5017 39.2567 84.5017 39.2767C84.5017 39.2966 84.5017 39.3166 84.5017 39.3365C84.5017 39.3565 84.5017 39.3764 84.5017 39.3963H89.5017ZM84.9536 14.7505L102.431 39.7201L106.527 36.853L89.0499 11.8834L84.9536 14.7505ZM106.979 38.2865V13.3169H101.979V38.2865H106.979ZM17.2999 29.429L17.9826 39.5643L22.9713 39.2283L22.2886 29.093L17.2999 29.429ZM20.79 31.5541L52.4802 17.7926L50.4886 13.2063L18.7985 26.9679L20.79 31.5541ZM18.2728 31.2448L36.9962 45.6047L40.0391 41.6372L21.3157 27.2773L18.2728 31.2448ZM49.1252 16.3266L58.1456 42.0547L62.864 40.4004L53.8436 14.6723L49.1252 16.3266Z" fill="white"/>
<ellipse cx="39.645" cy="49.3844" rx="3.94641" ry="3.88416" fill="white"/>
<ellipse cx="21.5638" cy="47.9706" rx="3.94641" ry="3.88416" fill="white"/>
<ellipse cx="76.8539" cy="3.88416" rx="3.94641" ry="3.88416" fill="white"/>
<path d="M103.355 55.0745C103.355 55.4023 103.299 55.696 103.188 55.9558C103.076 56.2156 102.925 56.4475 102.733 56.6516C102.541 56.8495 102.319 57.0196 102.065 57.1619C101.812 57.3041 101.539 57.4216 101.249 57.5144C100.964 57.6072 100.67 57.6752 100.367 57.7185C100.064 57.7618 99.7675 57.7834 99.4768 57.7834C98.8459 57.7834 98.2646 57.7556 97.7327 57.7C97.2069 57.6443 96.6905 57.5546 96.1833 57.4309V55.9465C96.7276 56.1012 97.2688 56.2187 97.8069 56.2991C98.345 56.3795 98.88 56.4197 99.4119 56.4197C100.185 56.4197 100.757 56.3145 101.128 56.1042C101.499 55.894 101.685 55.594 101.685 55.2043C101.685 55.0374 101.654 54.8889 101.592 54.759C101.536 54.623 101.431 54.4962 101.277 54.3787C101.122 54.255 100.881 54.1282 100.553 53.9983C100.231 53.8684 99.7891 53.72 99.2263 53.553C98.8057 53.4293 98.4161 53.2901 98.0574 53.1355C97.7048 52.9747 97.3987 52.7861 97.1389 52.5696C96.8792 52.3531 96.675 52.0995 96.5266 51.8088C96.3782 51.5181 96.304 51.1749 96.304 50.7791C96.304 50.5193 96.3627 50.2348 96.4802 49.9255C96.6039 49.6163 96.8111 49.3287 97.1018 49.0627C97.3925 48.7968 97.7852 48.5772 98.28 48.4041C98.7748 48.2247 99.3933 48.135 100.135 48.135C100.5 48.135 100.906 48.1567 101.351 48.2C101.796 48.2371 102.26 48.3051 102.742 48.4041V49.842C102.235 49.7183 101.753 49.6287 101.295 49.573C100.844 49.5111 100.451 49.4802 100.117 49.4802C99.7149 49.4802 99.3748 49.5111 99.0964 49.573C98.8243 49.6348 98.6016 49.7214 98.4285 49.8328C98.2615 49.9379 98.1409 50.0647 98.0667 50.2131C97.9924 50.3554 97.9553 50.51 97.9553 50.677C97.9553 50.844 97.9862 50.9955 98.0481 51.1316C98.1161 51.2677 98.2367 51.4006 98.4099 51.5305C98.5893 51.6542 98.8367 51.781 99.1521 51.9109C99.4675 52.0346 99.8788 52.1707 100.386 52.3191C100.936 52.4799 101.4 52.65 101.778 52.8293C102.155 53.0025 102.461 53.1973 102.696 53.4138C102.931 53.6303 103.098 53.8746 103.197 54.1467C103.302 54.4189 103.355 54.7281 103.355 55.0745ZM113.912 57.6165H112.298V51.6697C112.298 50.9522 112.162 50.4172 111.89 50.0647C111.624 49.706 111.24 49.5266 110.74 49.5266C110.523 49.5266 110.319 49.5575 110.127 49.6194C109.942 49.675 109.747 49.7771 109.543 49.9255C109.339 50.0678 109.116 50.2626 108.875 50.51C108.634 50.7574 108.355 51.0667 108.04 51.4377V57.6165H106.426V44.5076H108.04V48.302L107.984 49.7678C108.238 49.4648 108.485 49.2112 108.726 49.0071C108.974 48.7968 109.218 48.6267 109.459 48.4968C109.707 48.3669 109.957 48.2742 110.211 48.2185C110.464 48.1628 110.727 48.135 110.999 48.135C111.927 48.135 112.644 48.4195 113.152 48.9885C113.659 49.5514 113.912 50.4018 113.912 51.5398V57.6165ZM124.98 52.885C124.98 53.6086 124.878 54.2735 124.674 54.8796C124.47 55.4796 124.176 55.996 123.793 56.429C123.409 56.8557 122.942 57.1897 122.392 57.4309C121.841 57.6659 121.217 57.7834 120.518 57.7834C119.85 57.7834 119.25 57.6814 118.718 57.4773C118.192 57.267 117.744 56.9609 117.373 56.5588C117.008 56.1568 116.726 55.6589 116.529 55.0652C116.337 54.4714 116.241 53.788 116.241 53.0149C116.241 52.2913 116.343 51.6326 116.547 51.0388C116.751 50.4389 117.045 49.9255 117.428 49.4988C117.812 49.0658 118.279 48.7319 118.829 48.4968C119.38 48.2556 120.004 48.135 120.703 48.135C121.371 48.135 121.968 48.2402 122.494 48.4504C123.026 48.6545 123.474 48.9576 123.839 49.3596C124.21 49.7555 124.492 50.2502 124.683 50.844C124.881 51.4377 124.98 52.1181 124.98 52.885ZM123.329 52.9592C123.329 52.384 123.264 51.8831 123.134 51.4563C123.01 51.0234 122.831 50.6646 122.596 50.3801C122.361 50.0894 122.073 49.873 121.733 49.7307C121.399 49.5823 121.025 49.5081 120.611 49.5081C120.128 49.5081 119.714 49.6039 119.367 49.7957C119.027 49.9812 118.746 50.2317 118.523 50.5471C118.307 50.8625 118.146 51.2306 118.041 51.6511C117.942 52.0655 117.892 52.5015 117.892 52.9592C117.892 53.5344 117.954 54.0385 118.078 54.4714C118.208 54.9044 118.39 55.2662 118.625 55.5569C118.86 55.8414 119.145 56.0579 119.479 56.2063C119.813 56.3486 120.19 56.4197 120.611 56.4197C121.093 56.4197 121.504 56.3269 121.844 56.1414C122.191 55.9496 122.472 55.696 122.689 55.3806C122.911 55.0652 123.072 54.7003 123.171 54.2859C123.276 53.8653 123.329 53.4231 123.329 52.9592ZM135.278 52.7922C135.278 53.621 135.161 54.3446 134.926 54.9631C134.697 55.5816 134.378 56.095 133.97 56.5032C133.562 56.9114 133.079 57.2175 132.523 57.4216C131.966 57.6257 131.363 57.7278 130.714 57.7278C130.417 57.7278 130.12 57.7123 129.823 57.6814C129.532 57.6505 129.235 57.5979 128.932 57.5237V61.4202H127.318V48.302H128.756L128.858 49.8606C129.322 49.2236 129.817 48.7782 130.343 48.5247C130.868 48.2649 131.437 48.135 132.05 48.135C132.581 48.135 133.048 48.2463 133.45 48.469C133.852 48.6917 134.19 49.0071 134.462 49.4153C134.734 49.8173 134.938 50.3059 135.074 50.8811C135.21 51.4501 135.278 52.0872 135.278 52.7922ZM133.627 52.8665C133.627 52.3778 133.59 51.9294 133.515 51.5212C133.447 51.113 133.336 50.7636 133.181 50.4729C133.027 50.1822 132.829 49.9565 132.588 49.7957C132.346 49.6287 132.059 49.5452 131.725 49.5452C131.521 49.5452 131.314 49.5792 131.103 49.6472C130.893 49.7091 130.673 49.8173 130.445 49.9719C130.222 50.1204 129.984 50.3214 129.73 50.575C129.483 50.8223 129.217 51.1316 128.932 51.5027V56.0208C129.229 56.1444 129.542 56.2434 129.869 56.3176C130.197 56.3857 130.519 56.4197 130.834 56.4197C131.706 56.4197 132.39 56.1259 132.885 55.5383C133.379 54.9446 133.627 54.054 133.627 52.8665ZM141.429 54.6941C141.639 54.6941 141.837 54.7343 142.023 54.8147C142.214 54.8951 142.378 55.0064 142.514 55.1487C142.657 55.2909 142.768 55.4579 142.848 55.6497C142.929 55.8352 142.969 56.0362 142.969 56.2527C142.969 56.463 142.929 56.6609 142.848 56.8464C142.768 57.032 142.657 57.1959 142.514 57.3381C142.378 57.4742 142.214 57.5824 142.023 57.6628C141.837 57.7432 141.639 57.7834 141.429 57.7834C141.212 57.7834 141.011 57.7432 140.826 57.6628C140.64 57.5824 140.476 57.4742 140.334 57.3381C140.198 57.1959 140.09 57.032 140.01 56.8464C139.929 56.6609 139.889 56.463 139.889 56.2527C139.889 56.0362 139.929 55.8352 140.01 55.6497C140.09 55.4579 140.198 55.2909 140.334 55.1487C140.476 55.0064 140.64 54.8951 140.826 54.8147C141.011 54.7343 141.212 54.6941 141.429 54.6941ZM155.447 57.2732C155.026 57.434 154.594 57.5515 154.148 57.6257C153.709 57.7061 153.254 57.7463 152.784 57.7463C151.312 57.7463 150.177 57.3474 149.38 56.5496C148.588 55.7517 148.192 54.5859 148.192 53.052C148.192 52.316 148.307 51.648 148.535 51.0481C148.764 50.4482 149.086 49.9348 149.5 49.5081C149.915 49.0813 150.409 48.7535 150.985 48.5247C151.56 48.2896 152.194 48.1721 152.886 48.1721C153.369 48.1721 153.82 48.2061 154.241 48.2742C154.662 48.3422 155.064 48.4535 155.447 48.6082V50.1482C155.045 49.9379 154.634 49.7864 154.213 49.6936C153.799 49.5946 153.369 49.5452 152.924 49.5452C152.509 49.5452 152.116 49.6256 151.745 49.7864C151.38 49.941 151.059 50.1667 150.781 50.4636C150.502 50.7605 150.283 51.1223 150.122 51.5491C149.961 51.9758 149.881 52.4583 149.881 52.9963C149.881 54.122 150.153 54.9662 150.697 55.5291C151.247 56.0857 152.008 56.364 152.979 56.364C153.418 56.364 153.842 56.3145 154.25 56.2156C154.665 56.1166 155.064 55.9682 155.447 55.7703V57.2732ZM166.765 52.885C166.765 53.6086 166.663 54.2735 166.459 54.8796C166.255 55.4796 165.961 55.996 165.578 56.429C165.194 56.8557 164.727 57.1897 164.177 57.4309C163.627 57.6659 163.002 57.7834 162.303 57.7834C161.635 57.7834 161.035 57.6814 160.503 57.4773C159.977 57.267 159.529 56.9609 159.158 56.5588C158.793 56.1568 158.512 55.6589 158.314 55.0652C158.122 54.4714 158.026 53.788 158.026 53.0149C158.026 52.2913 158.128 51.6326 158.332 51.0388C158.536 50.4389 158.83 49.9255 159.214 49.4988C159.597 49.0658 160.064 48.7319 160.615 48.4968C161.165 48.2556 161.79 48.135 162.489 48.135C163.156 48.135 163.753 48.2402 164.279 48.4504C164.811 48.6545 165.259 48.9576 165.624 49.3596C165.995 49.7555 166.277 50.2502 166.469 50.844C166.666 51.4377 166.765 52.1181 166.765 52.885ZM165.114 52.9592C165.114 52.384 165.049 51.8831 164.919 51.4563C164.795 51.0234 164.616 50.6646 164.381 50.3801C164.146 50.0894 163.858 49.873 163.518 49.7307C163.184 49.5823 162.81 49.5081 162.396 49.5081C161.913 49.5081 161.499 49.6039 161.153 49.7957C160.812 49.9812 160.531 50.2317 160.308 50.5471C160.092 50.8625 159.931 51.2306 159.826 51.6511C159.727 52.0655 159.677 52.5015 159.677 52.9592C159.677 53.5344 159.739 54.0385 159.863 54.4714C159.993 54.9044 160.175 55.2662 160.41 55.5569C160.645 55.8414 160.93 56.0579 161.264 56.2063C161.598 56.3486 161.975 56.4197 162.396 56.4197C162.878 56.4197 163.289 56.3269 163.63 56.1414C163.976 55.9496 164.257 55.696 164.474 55.3806C164.697 55.0652 164.857 54.7003 164.956 54.2859C165.061 53.8653 165.114 53.4231 165.114 52.9592ZM175.746 57.6165V50.9275C175.746 50.6368 175.733 50.3987 175.709 50.2131C175.69 50.0276 175.656 49.8822 175.607 49.7771C175.563 49.6658 175.505 49.5885 175.43 49.5452C175.362 49.5019 175.276 49.4802 175.171 49.4802C175.047 49.4802 174.933 49.5173 174.827 49.5916C174.722 49.6658 174.608 49.7864 174.484 49.9534C174.367 50.1204 174.234 50.343 174.085 50.6213C173.943 50.8935 173.773 51.2306 173.575 51.6326V57.6165H172.1V51.1038C172.1 50.7636 172.087 50.4884 172.063 50.2781C172.044 50.0678 172.01 49.9039 171.961 49.7864C171.917 49.6689 171.859 49.5885 171.784 49.5452C171.71 49.5019 171.621 49.4802 171.515 49.4802C171.404 49.4802 171.299 49.5111 171.2 49.573C171.101 49.6348 170.99 49.7462 170.866 49.907C170.748 50.0678 170.615 50.2874 170.467 50.5657C170.319 50.844 170.142 51.1996 169.938 51.6326V57.6165H168.454V48.302H169.688L169.762 50.074C169.923 49.7214 170.077 49.4215 170.226 49.1741C170.38 48.9267 170.538 48.7288 170.699 48.5803C170.86 48.4257 171.03 48.3144 171.209 48.2463C171.395 48.1721 171.599 48.135 171.822 48.135C172.323 48.135 172.703 48.2989 172.963 48.6267C173.222 48.9545 173.352 49.4617 173.352 50.1482C173.501 49.8266 173.646 49.5421 173.788 49.2947C173.931 49.0411 174.082 48.8308 174.243 48.6638C174.41 48.4906 174.592 48.3608 174.79 48.2742C174.988 48.1814 175.217 48.135 175.477 48.135C176.646 48.135 177.23 49.0349 177.23 50.8347V57.6165H175.746Z" fill="white"/>
</svg>
